<?xml version="1.0" standalone="no"?>
<!DOCTYPE svg PUBLIC "-//W3C//DTD SVG 20010904//EN"
 "http://www.w3.org/TR/2001/REC-SVG-20010904/DTD/svg10.dtd">
<svg version="1.0" xmlns="http://www.w3.org/2000/svg"
 width="404.000000pt" height="340.000000pt" viewBox="0 0 404.000000 340.000000"
 preserveAspectRatio="xMidYMid meet">

<g transform="translate(0.000000,340.000000) scale(0.100000,-0.100000)"
fill="#000000" stroke="none">
<path d="M677 2893 c-142 -53 -185 -152 -301 -698 -57 -268 -81 -429 -71 -492
21 -140 225 -191 369 -92 44 30 89 99 116 178 19 59 80 295 80 313 0 5 -49 8
-109 8 l-109 0 -17 -77 c-35 -161 -64 -266 -78 -280 -8 -8 -21 -11 -31 -7 -15
6 -17 14 -11 53 8 56 148 716 176 826 19 80 38 108 65 98 21 -8 17 -41 -21
-218 -19 -88 -35 -168 -35 -178 0 -16 10 -17 108 -15 l107 3 28 135 c15 74 30
182 33 240 6 99 5 107 -17 139 -36 53 -80 74 -163 78 -51 2 -85 -2 -119 -14z"/>
<path d="M1126 2892 c-2 -4 -18 -73 -35 -152 -16 -80 -60 -284 -96 -455 -117
-550 -145 -686 -145 -701 0 -12 18 -14 107 -12 l107 3 8 35 c4 19 28 132 53
250 25 118 48 223 51 233 6 18 58 25 68 9 3 -5 -2 -37 -9 -73 -35 -155 -95
-443 -95 -451 0 -4 47 -8 105 -8 100 0 106 1 115 23 5 12 52 229 106 482 53
253 113 539 134 635 21 96 36 178 33 183 -2 4 -51 7 -108 7 -90 0 -104 -2
-109 -17 -3 -10 -31 -142 -62 -293 -31 -151 -61 -281 -66 -287 -12 -15 -54
-17 -62 -4 -3 5 21 135 54 289 33 154 60 288 60 296 0 14 -16 16 -104 16 -58
0 -107 -4 -110 -8z"/>
<path d="M1855 2888 c-18 -46 -435 -1304 -435 -1311 0 -4 50 -6 111 -5 l112 3
26 95 26 95 54 3 54 3 -7 -38 c-3 -21 -9 -66 -13 -100 l-6 -63 106 0 c126 0
111 -22 127 195 6 83 17 218 25 300 8 83 24 265 35 405 11 140 24 291 29 335
4 44 6 83 4 88 -8 13 -243 8 -248 -5z m20 -605 c-15 -98 -32 -214 -39 -258
-11 -77 -12 -80 -40 -83 -16 -2 -32 0 -37 5 -8 8 45 222 123 508 23 80 19 3
-7 -172z"/>
<path d="M2336 2891 c-4 -6 -32 -127 -62 -269 -55 -257 -68 -320 -167 -790
-29 -139 -51 -254 -49 -257 3 -3 52 -5 108 -5 89 0 103 2 108 18 3 9 17 76 31
147 37 183 29 171 122 177 183 11 228 77 313 463 79 363 75 449 -25 503 -37
20 -368 31 -379 13z m238 -192 c14 -13 -92 -526 -120 -580 -15 -29 -50 -47
-64 -32 -7 6 107 573 125 621 5 14 41 8 59 -9z"/>
<path d="M2814 2248 c-119 -359 -219 -659 -222 -666 -3 -10 20 -12 109 -10
l114 3 26 95 26 95 53 3 53 3 -6 -53 c-4 -29 -10 -75 -13 -101 l-7 -48 109 3
109 3 7 90 c5 50 17 189 28 310 11 121 24 283 30 360 6 77 20 232 30 344 11
112 17 207 14 212 -3 5 -59 9 -124 9 l-118 0 -218 -652z m240 76 c-62 -407
-55 -379 -88 -382 -16 -2 -32 0 -37 5 -5 5 1 45 15 93 14 47 46 166 71 265 26
99 49 184 52 188 13 22 11 -13 -13 -169z"/>
<path d="M3501 2863 c-5 -21 -28 -128 -51 -238 -23 -110 -55 -261 -71 -335
-68 -316 -149 -702 -149 -711 0 -5 47 -9 105 -9 100 0 106 1 115 23 5 12 36
155 70 317 34 162 77 367 96 455 19 88 52 241 73 340 21 99 37 183 34 188 -2
4 -51 7 -108 7 l-104 0 -10 -37z"/>
<path d="M1960 1177 c-43 -28 -65 -66 -86 -147 -25 -98 -16 -152 39 -247 50
-85 55 -111 36 -191 -13 -50 -25 -72 -42 -72 -9 0 -8 24 9 138 l7 42 -61 0
-61 0 -12 -57 c-7 -32 -13 -84 -13 -115 -1 -78 21 -100 102 -106 110 -8 164
42 196 178 26 111 23 127 -68 282 l-28 48 16 77 c18 83 29 104 47 86 8 -8 7
-32 -5 -88 -9 -42 -16 -81 -16 -87 0 -5 28 -8 62 -6 l63 3 12 65 c13 72 16
150 7 175 -19 47 -146 62 -204 22z"/>
<path d="M2305 1181 c-66 -40 -79 -72 -133 -321 -74 -338 -75 -392 -11 -425
36 -19 112 -19 149 0 64 33 84 84 144 366 65 302 65 353 5 384 -39 21 -117 19
-154 -4z m75 -106 c0 -26 -69 -366 -97 -480 -12 -48 -23 -70 -33 -70 -11 0
-14 9 -12 33 4 50 102 503 113 524 14 26 29 22 29 -7z"/>
<path d="M470 1178 c0 -7 -3 -30 -6 -50 l-7 -38 52 0 c35 0 51 -4 51 -13 0 -7
-52 -139 -116 -292 -64 -154 -122 -297 -130 -317 l-13 -38 133 0 133 0 7 38
c10 62 10 62 -44 62 -32 0 -50 4 -50 12 0 6 50 133 112 282 61 149 120 292
130 319 l18 47 -135 0 c-101 0 -135 -3 -135 -12z"/>
<path d="M777 1168 c-4 -13 -38 -174 -76 -358 -39 -184 -73 -345 -76 -357 -5
-22 -3 -23 58 -23 l63 0 80 380 80 380 -62 0 c-56 0 -62 -2 -67 -22z"/>
<path d="M970 1186 c0 -4 -147 -699 -155 -733 -5 -23 -4 -23 104 -23 l109 0 6
31 c12 63 9 69 -34 69 -22 0 -40 3 -40 7 0 10 130 625 135 641 3 9 -13 12 -60
12 -36 0 -65 -2 -65 -4z"/>
<path d="M1226 1173 c-5 -19 -156 -731 -156 -738 0 -3 49 -5 109 -5 l108 0 7
38 c10 61 9 62 -34 62 -25 0 -40 5 -40 13 0 6 29 149 65 317 36 168 65 311 65
318 0 8 -19 12 -59 12 -48 0 -61 -3 -65 -17z"/>
<path d="M1429 823 c-67 -203 -124 -374 -127 -380 -3 -10 13 -13 61 -13 l64 0
15 52 c15 55 35 75 62 65 13 -5 15 -16 10 -62 l-7 -55 62 0 c33 0 61 2 61 4 0
2 14 160 30 351 17 191 30 361 30 376 l0 29 -69 0 -69 0 -123 -367z m127 -28
c-17 -118 -25 -151 -38 -153 -9 -2 -19 1 -22 6 -7 11 71 308 79 300 2 -2 -6
-71 -19 -153z"/>
<path d="M2507 818 c-43 -205 -78 -376 -78 -380 1 -5 28 -8 61 -8 54 0 60 2
65 23 25 111 56 272 70 367 18 118 39 195 30 110 -3 -25 -9 -124 -15 -220 -6
-96 -12 -199 -15 -228 l-5 -52 43 0 43 0 51 143 c29 78 71 195 94 260 23 65
43 116 46 114 2 -3 -10 -54 -27 -115 -29 -104 -90 -371 -90 -393 0 -6 25 -9
62 -7 l63 3 72 340 c39 187 75 357 78 378 l7 37 -90 0 -90 0 -30 -77 c-44
-116 -90 -252 -102 -302 -17 -67 -21 -43 -11 60 5 52 13 145 16 207 l7 112
-89 0 -88 0 -78 -372z"/>
<path d="M3125 1168 c-3 -13 -37 -173 -75 -356 -38 -183 -73 -344 -76 -358 -6
-24 -5 -24 58 -24 l64 0 53 248 c28 136 64 307 80 380 l28 132 -63 0 c-58 0
-64 -2 -69 -22z"/>
<path d="M3286 1159 c-12 -60 -8 -69 24 -69 20 0 30 -5 30 -15 0 -8 -29 -152
-65 -320 -36 -169 -65 -311 -65 -316 0 -6 26 -9 62 -7 l62 3 38 180 c21 99 52
246 69 328 l32 147 33 0 c38 0 41 3 50 58 l7 42 -135 0 -135 0 -7 -31z"/>
<path d="M3540 893 c-34 -164 -70 -335 -80 -380 l-18 -83 64 0 c35 0 64 1 64
3 0 4 148 703 155 735 5 21 3 22 -58 22 l-64 0 -63 -297z"/>
</g>
</svg>
